<?xml version="1.0" encoding="UTF-8"?>
<svg version="1.1" xmlns="http://www.w3.org/2000/svg" width="750" height="750">
<path d="M0 0 C1.92569835 1.54687244 3.82159346 3.13150648 5.6875 4.75 C6.18056641 5.17732422 6.67363281 5.60464844 7.18164062 6.04492188 C28.28625619 24.7112635 37.74771228 52.1883097 47.6875 77.75 C58.66699092 78.19831605 65.42018112 75.80533046 73.625 68.3125 C74.24761719 67.73371094 74.87023437 67.15492188 75.51171875 66.55859375 C85.42725866 58.31641246 94.07295183 55.94766125 106.6875 56.75 C118.08973358 58.82313338 126.54615121 67.07231262 134.6875 74.75 C135.28175781 75.27980469 135.87601562 75.80960937 136.48828125 76.35546875 C146.14014106 85.31626461 153.43304715 97.29146042 159.6875 108.75 C160.16316406 109.61625 160.63882812 110.4825 161.12890625 111.375 C162.10884444 113.16932823 163.08388542 114.96633737 164.0546875 116.765625 C165.53915634 119.47886469 167.06519981 122.1649891 168.60229492 124.84863281 C175.69251735 137.27127674 182.16781926 150.02206878 188.6875 162.75 C189.09919434 163.55002441 189.51088867 164.35004883 189.93505859 165.17431641 C212.21482006 208.53143951 212.21482006 208.53143951 210.6875 220.75 C209.5 222.9375 209.5 222.9375 207.6875 224.75 C195.20108075 227.40751646 182.22581604 220.75570699 171.6875 214.75 C168.9518086 212.95562177 166.28687768 211.10197101 163.6484375 209.16796875 C161.74624189 207.7119935 161.74624189 207.7119935 159.6875 206.75 C159.55472656 207.31589844 159.42195313 207.88179687 159.28515625 208.46484375 C159.10855469 209.19832031 158.93195313 209.93179688 158.75 210.6875 C158.48896484 211.78384766 158.48896484 211.78384766 158.22265625 212.90234375 C157.6875 214.75 157.6875 214.75 156.6875 215.75 C146.20910343 217.12421594 139.05342721 211.33121416 130.9375 205.3125 C129.84889133 204.46506683 128.76321766 203.613738 127.6875 202.75 C128.01234375 203.72839844 128.01234375 203.72839844 128.34375 204.7265625 C131.47053426 214.54119086 131.47053426 214.54119086 130.6875 218.75 C128.75 221.625 128.75 221.625 125.6875 223.75 C120.30596335 224.75968869 115.04123047 223.57766146 109.828125 222.1875 C107.40420161 221.6920996 105.15500868 221.68097878 102.6875 221.75 C112.54552678 247.0765704 126.57867167 268.89776853 142.6875 290.75 C143.21851318 291.47106934 143.74952637 292.19213867 144.29663086 292.93505859 C149.83349351 300.42283229 155.45698494 307.80551628 161.40625 314.97265625 C164.55086662 318.80111929 167.60379667 322.69882782 170.64794922 326.60742188 C174.10814924 331.04414267 177.67603994 335.37982846 181.32421875 339.6640625 C182.6875 341.75 182.6875 341.75 182.6875 345.75 C177.01296664 345.33288269 173.85724417 343.09814921 169.5 339.75 C164.91595485 336.18733782 164.91595485 336.18733782 159.6875 333.75 C160.14640625 334.31847656 160.6053125 334.88695312 161.078125 335.47265625 C170.6875 347.56512605 170.6875 347.56512605 170.6875 353.75 C167.88196068 354.5635571 166.26359105 354.97775693 163.50390625 353.88671875 C160.87922404 352.19909813 158.26920361 350.50322082 155.6875 348.75 C155.14883301 348.38938477 154.61016602 348.02876953 154.05517578 347.65722656 C145.80877597 342.10617562 138.38087137 336.02811027 131.19482422 329.171875 C129.60868892 327.67565667 127.99833561 326.21008696 126.37890625 324.75 C125.83443848 324.25814209 125.2899707 323.76628418 124.72900391 323.25952148 C123.21406441 321.89284776 121.69883803 320.52649206 120.18359375 319.16015625 C118.07204351 317.12130414 116.34739135 315.15879856 114.6875 312.75 C114.72875 314.02875 114.77 315.3075 114.8125 316.625 C114.8828125 318.8046875 114.8828125 318.8046875 114.6875 320.75 C114.0275 321.41 113.3675 322.07 112.6875 322.75 C107.65334492 322.53818422 105.01690392 320.85065067 101.25 317.625 C99.83074219 316.41457031 99.83074219 316.41457031 98.3828125 315.1796875 C95.48755129 312.56975638 92.70692337 309.89276502 90.02734375 307.0625 C88.70087071 305.62900567 88.70087071 305.62900567 86.6875 304.75 C86.6875 304.09 86.6875 303.43 86.6875 302.75 C86.0275 302.75 85.3675 302.75 84.6875 302.75 C84.6875 302.09 84.6875 301.43 84.6875 300.75 C84.130625 300.54375 83.57375 300.3375 83 300.125 C80.45937799 298.61435988 78.92242503 296.81141825 77.12890625 294.48046875 C75.12954484 292.08015139 72.91381013 289.94081823 70.6875 287.75 C68.79026734 285.87638434 66.89445637 284.00141393 65 282.125 C64.51466797 281.64804687 64.02933594 281.17109375 63.52929688 280.6796875 C61.29164685 278.45746954 59.4450391 276.38630864 57.6875 273.75 C54.10392759 273.49984127 54.10392759 273.49984127 50.6875 273.75 C50.3575 276.06 50.0275 278.37 49.6875 280.75 C44.95978877 281.83000665 41.67508115 281.51192219 37 280.3125 C21.27493864 276.74310846 6.10681672 279.61102456 -8.3125 286.75 C-9.3025 287.41 -10.2925 288.07 -11.3125 288.75 C-14.4375 288.9375 -14.4375 288.9375 -17.3125 288.75 C-17.6425 288.42 -17.9725 288.09 -18.3125 287.75 C-18.07238223 281.62699674 -16.37515763 279.02099904 -12.3125 274.75 C-24.11829987 274.27985753 -33.69944208 275.94105423 -44.20703125 281.5078125 C-47.79318643 282.94227457 -50.48306006 283.04203601 -54.3125 282.75 C-55.3125 281.75 -55.3125 281.75 -55.4375 278.625 C-54.83412599 274.9973069 -53.28689514 273.39583173 -50.5 271.0625 C-40.5243614 264.067005 -29.10620067 262.88746352 -17.3125 261.75 C-18.35148437 261.24210937 -19.39046875 260.73421875 -20.4609375 260.2109375 C-28.28754605 256.35871987 -35.91885648 252.39405011 -43.3125 247.75 C-44.09882813 247.28464844 -44.88515625 246.81929688 -45.6953125 246.33984375 C-46.43523437 245.89769531 -47.17515625 245.45554687 -47.9375 245 C-48.91589844 244.41992188 -48.91589844 244.41992188 -49.9140625 243.828125 C-50.60628906 243.29445313 -50.60628906 243.29445313 -51.3125 242.75 C-51.3125 242.09 -51.3125 241.43 -51.3125 240.75 C-51.89644531 240.481875 -52.48039062 240.21375 -53.08203125 239.9375 C-64.12648377 234.05744121 -72.19227846 222.40029821 -78.77490234 212.10351562 C-82.24711472 206.68726722 -85.88527113 201.69794222 -90.9375 197.625 C-96.56832918 192.80008987 -101.47353234 187.34907099 -106.3125 181.75 C-107.0653125 180.88117188 -107.818125 180.01234375 -108.59375 179.1171875 C-113.83621651 172.60209325 -117.77737408 165.55955093 -121.6875 158.1875 C-122.19982178 157.22996826 -122.71214355 156.27243652 -123.23999023 155.28588867 C-127.92051776 146.20993794 -130.89969835 137.34206313 -130.6875 127.0625 C-130.67589844 126.32918457 -130.66429687 125.59586914 -130.65234375 124.84033203 C-130.45721112 118.41099893 -130.05497583 113.72252899 -125.54296875 108.83203125 C-119.2028554 102.95257623 -113.0385345 99.69735424 -104.3125 99.75 C-100.27207235 100.23621271 -96.29851446 100.93391244 -92.3125 101.75 C-90.28837732 95.17160129 -89.43092138 88.62252146 -90.3125 81.75 C-91.76478205 79.05448079 -91.76478205 79.05448079 -93.3125 76.75 C-93.3125 76.09 -93.3125 75.43 -93.3125 74.75 C-96.1549854 73.17726432 -96.1549854 73.17726432 -99.3125 72.75 C-99.6425 76.38 -99.9725 80.01 -100.3125 83.75 C-106.69102095 83.59053698 -110.10168449 80.12577529 -114.3125 75.75 C-121.4078274 67.31424551 -122.22859294 59.41913124 -121.3125 48.75 C-120.16421261 44.65996606 -118.21893051 41.26539466 -116.05078125 37.640625 C-114.94094959 35.67906207 -113.96429144 33.90877021 -113.3125 31.75 C-114.54522142 28.7834467 -114.54522142 28.7834467 -116.3125 25.75 C-117.44234245 19.26470434 -116.23743722 13.88238857 -113.03125 8.19140625 C-103.55556842 -5.26836872 -86.24066005 -12.82190259 -70.49951172 -15.77832031 C-45.38097643 -19.49587893 -20.69576436 -14.84813302 0 0 Z " fill="#FDC804" transform="translate(335.3125,115.25)"/>
<path d="M0 0 C1.92569835 1.54687244 3.82159346 3.13150648 5.6875 4.75 C6.18056641 5.17732422 6.67363281 5.60464844 7.18164062 6.04492188 C24.19034655 21.0885655 33.40407716 41.81317634 41.75 62.5 C42.04938477 63.22630615 42.34876953 63.9526123 42.65722656 64.70092773 C44.43402546 69.26793927 44.98886375 72.85123607 44.6875 77.75 C43.57632813 77.84796875 42.46515625 77.9459375 41.3203125 78.046875 C29.30059678 79.20365764 20.50222669 81.10131227 11 88.875 C10.47696289 89.29966553 9.95392578 89.72433105 9.41503906 90.16186523 C1.01627622 97.44669525 -3.70841634 107.11166873 -8.25 117.0625 C-20.2304656 142.59096874 -20.2304656 142.59096874 -30.3125 151.75 C-30.9725 151.75 -31.6325 151.75 -32.3125 151.75 C-32.3125 152.41 -32.3125 153.07 -32.3125 153.75 C-44.90740455 163.5432324 -59.1798412 169.17814635 -75.0625 168.9375 C-76.29806641 168.9365332 -76.29806641 168.9365332 -77.55859375 168.93554688 C-81.60508505 168.90622447 -85.36553654 168.73858524 -89.3125 167.75 C-90.199375 167.564375 -91.08625 167.37875 -92 167.1875 C-94.3125 165.75 -94.3125 165.75 -95.43359375 162.60546875 C-96.89925185 156.04626419 -96.70238314 149.31219686 -96.6875 142.625 C-96.68861786 141.92245087 -96.68973572 141.21990173 -96.69088745 140.49606323 C-96.66555991 108.10305991 -96.66555991 108.10305991 -91.3125 102.75 C-90.56253809 97.66692486 -90.19583026 92.63638943 -90.0625 87.5 C-90.03671875 86.52546875 -90.0109375 85.5509375 -89.984375 84.546875 C-90.36681075 81.28706547 -91.53198476 79.46762853 -93.3125 76.75 C-93.3125 76.09 -93.3125 75.43 -93.3125 74.75 C-96.1549854 73.17726432 -96.1549854 73.17726432 -99.3125 72.75 C-99.6425 76.38 -99.9725 80.01 -100.3125 83.75 C-106.69102095 83.59053698 -110.10168449 80.12577529 -114.3125 75.75 C-121.4078274 67.31424551 -122.22859294 59.41913124 -121.3125 48.75 C-120.16421261 44.65996606 -118.21893051 41.26539466 -116.05078125 37.640625 C-114.94094959 35.67906207 -113.96429144 33.90877021 -113.3125 31.75 C-114.54522142 28.7834467 -114.54522142 28.7834467 -116.3125 25.75 C-117.44234245 19.26470434 -116.23743722 13.88238857 -113.03125 8.19140625 C-103.55556842 -5.26836872 -86.24066005 -12.82190259 -70.49951172 -15.77832031 C-45.38097643 -19.49587893 -20.69576436 -14.84813302 0 0 Z " fill="#FD510C" transform="translate(335.3125,115.25)"/>
<path d="M0 0 C0.66 0 1.32 0 2 0 C2.32871094 0.6084375 2.65742188 1.216875 2.99609375 1.84375 C5.59440118 6.63195881 8.2229384 11.3973782 10.93017578 16.125 C18.01369969 28.53975665 24.48494443 41.28109819 31 54 C31.41169434 54.80002441 31.82338867 55.60004883 32.24755859 56.42431641 C54.52732006 99.78143951 54.52732006 99.78143951 53 112 C51.8125 114.1875 51.8125 114.1875 50 116 C37.51358075 118.65751646 24.53831604 112.00570699 14 106 C11.2643086 104.20562177 8.59937768 102.35197101 5.9609375 100.41796875 C4.05874189 98.9619935 4.05874189 98.9619935 2 98 C1.86722656 98.56589844 1.73445312 99.13179688 1.59765625 99.71484375 C1.42105469 100.44832031 1.24445313 101.18179688 1.0625 101.9375 C0.88847656 102.66839844 0.71445312 103.39929688 0.53515625 104.15234375 C0 106 0 106 -1 107 C-11.47839657 108.37421594 -18.63407279 102.58121416 -26.75 96.5625 C-27.83860867 95.71506683 -28.92428234 94.863738 -30 94 C-29.7834375 94.65226562 -29.566875 95.30453125 -29.34375 95.9765625 C-26.21696574 105.79119086 -26.21696574 105.79119086 -27 110 C-28.94410888 112.88480672 -30.40929707 114.65588875 -33.9140625 115.4140625 C-62.33412762 116.5508651 -92.98428645 94.41114727 -112.97363281 76.20214844 C-128.11528994 62.11043286 -140.70966738 45.98105657 -147 26 C-147 24.68 -147 23.36 -147 22 C-146.34 22 -145.68 22 -145 22 C-144.2265625 23.5159375 -144.2265625 23.5159375 -143.4375 25.0625 C-136.40462712 37.12230607 -121.84036667 45.32318352 -109 50 C-103.37340997 51.37993901 -96.4764838 52.42434579 -90.98828125 50.17578125 C-88.73874976 48.71059004 -87.20863367 47.41726734 -86 45 C-85.93003986 43.29297265 -85.91559846 41.58331997 -85.9375 39.875 C-85.94652344 38.96492188 -85.95554687 38.05484375 -85.96484375 37.1171875 C-85.97644531 36.41851562 -85.98804688 35.71984375 -86 35 C-81 37 -81 37 -78.8125 38.125 C-72.42300041 40.11284432 -65.11391006 39.67483565 -59 37 C-57.54708727 34.53744315 -57.54708727 34.53744315 -57 32 C-56.505 31.505 -56.505 31.505 -56 31 C-55.76807135 29.48530552 -55.58784762 27.96245438 -55.4375 26.4375 C-55.31181641 25.19806641 -55.31181641 25.19806641 -55.18359375 23.93359375 C-55.12300781 23.29550781 -55.06242187 22.65742188 -55 22 C-53.948125 22.06960937 -53.948125 22.06960937 -52.875 22.140625 C-46.6577793 22.3771497 -40.89950019 22.28552774 -36 18 C-34.05663829 14.32710926 -33.77582864 11.30311165 -33.875 7.1875 C-33.89304687 6.21167969 -33.91109375 5.23585937 -33.9296875 4.23046875 C-33.95289063 3.49441406 -33.97609375 2.75835937 -34 2 C-33.34 2 -32.68 2 -32 2 C-32 2.66 -32 3.32 -32 4 C-31.33613281 4.19335938 -30.67226563 4.38671875 -29.98828125 4.5859375 C-22.32421479 6.84599797 -22.32421479 6.84599797 -19.5 8.1875 C-14.39682334 9.84603242 -9.00753479 9.75282555 -4 7.875 C-1.45792221 5.49180208 -0.81778343 3.34547769 0 0 Z " fill="#5A9A0C" transform="translate(493,224)"/>
<path d="M0 0 C1.94045688 0.4241929 3.87731761 0.86485995 5.8125 1.3125 C6.89144531 1.55613281 7.97039062 1.79976563 9.08203125 2.05078125 C14.64874681 3.86164053 16.18100904 7.93860653 18.8125 12.875 C26.6980341 27.27284846 36.14871628 40.88371939 46 54 C46.944452 55.27441245 47.88842287 56.54918153 48.83203125 57.82421875 C53.97743232 64.75541036 59.20392502 71.57889064 64.71875 78.22265625 C67.86336662 82.05111929 70.91629667 85.94882782 73.96044922 89.85742188 C77.42064924 94.29414267 80.98853994 98.62982846 84.63671875 102.9140625 C86 105 86 105 86 109 C80.32546664 108.58288269 77.16974417 106.34814921 72.8125 103 C68.22845485 99.43733782 68.22845485 99.43733782 63 97 C63.45890625 97.56847656 63.9178125 98.13695312 64.390625 98.72265625 C74 110.81512605 74 110.81512605 74 117 C71.19446068 117.8135571 69.57609105 118.22775693 66.81640625 117.13671875 C64.19172404 115.44909813 61.58170361 113.75322082 59 112 C58.46133301 111.63938477 57.92266602 111.27876953 57.36767578 110.90722656 C49.12127597 105.35617562 41.69337137 99.27811027 34.50732422 92.421875 C32.92118892 90.92565667 31.31083561 89.46008696 29.69140625 88 C29.14693848 87.50814209 28.6024707 87.01628418 28.04150391 86.50952148 C26.52656441 85.14284776 25.01133803 83.77649206 23.49609375 82.41015625 C21.38454351 80.37130414 19.65989135 78.40879856 18 76 C18.04125 77.27875 18.0825 78.5575 18.125 79.875 C18.1953125 82.0546875 18.1953125 82.0546875 18 84 C17.34 84.66 16.68 85.32 16 86 C10.96584492 85.78818422 8.32940392 84.10065067 4.5625 80.875 C3.61632812 80.06804687 2.67015625 79.26109375 1.6953125 78.4296875 C-1.19994871 75.81975638 -3.98057663 73.14276502 -6.66015625 70.3125 C-7.98662929 68.87900567 -7.98662929 68.87900567 -10 68 C-10 67.34 -10 66.68 -10 66 C-10.66 66 -11.32 66 -12 66 C-12 65.34 -12 64.68 -12 64 C-12.556875 63.79375 -13.11375 63.5875 -13.6875 63.375 C-16.22812201 61.86435988 -17.76507497 60.06141825 -19.55859375 57.73046875 C-22.38659295 54.33533692 -25.64429731 51.34241919 -28.82421875 48.28125 C-29.76910156 47.3634375 -30.71398437 46.445625 -31.6875 45.5 C-32.17283203 45.03980469 -32.65816406 44.57960938 -33.15820312 44.10546875 C-36.04561619 41.27779526 -37.80102898 38.87036258 -39 35 C-38.28714844 34.6596875 -37.57429688 34.319375 -36.83984375 33.96875 C-28.90001542 29.95074804 -22.97630529 26.1231009 -19.6875 17.59765625 C-18.69225269 14.4149383 -17.7946991 11.23802864 -17 8 C-12.25 9.875 -12.25 9.875 -10 11 C-5.93311615 11.36180084 -5.93311615 11.36180084 -2.1875 10 C-0.29896856 6.81931546 -0.30043453 3.66530121 0 0 Z " fill="#096433" transform="translate(432,352)"/>
<path d="M0 0 C50.90984043 0 50.90984043 0 60.34375 9.0859375 C65.13442883 14.6223352 67.10847404 20.70813415 67 28 C66.25050927 35.62174419 64.23803256 41.00481988 58.5 46.3125 C56.21731291 47.85331378 54.69270763 48.60108035 52 49 C52 49.66 52 50.32 52 51 C52.680625 51.04125 53.36125 51.0825 54.0625 51.125 C58.98443077 52.59110704 62.54021056 55.71606517 65.30078125 60.03515625 C69.39111137 67.99270758 70.41340414 76.27315005 68.24609375 85.0546875 C64.84337499 94.90255592 60.10985196 99.19768187 51 104 C36.63221234 110.2859071 12.41889474 107 0 107 C0 71.69 0 36.38 0 0 Z M18 16 C18 24.91 18 33.82 18 43 C21.17625 43.0825 24.3525 43.165 27.625 43.25 C29.1092749 43.30462402 29.1092749 43.30462402 30.62353516 43.36035156 C36.43813249 43.43322503 39.55344455 42.81334344 44 39 C47.36548613 35.18578239 47.56823655 31.35183638 47.421875 26.44140625 C46.72071026 22.38373994 45.02786468 20.75260426 42 18 C38.97166552 16.15127992 36.76241344 15.75945624 33.234375 15.8046875 C32.43225586 15.80968262 31.63013672 15.81467773 30.80371094 15.81982422 C29.79598633 15.83803223 28.78826172 15.85624023 27.75 15.875 C24.5325 15.91625 21.315 15.9575 18 16 Z M18 59 C18 69.23 18 79.46 18 90 C23.011875 90.0928125 23.011875 90.0928125 28.125 90.1875 C29.16672363 90.21481201 30.20844727 90.24212402 31.28173828 90.27026367 C36.61147851 90.31793302 40.4274651 90.06526508 45 87 C49.02228011 82.43416853 50.25027712 77.9753662 50 72 C48.33178897 66.11219635 45.8389666 63.42760134 41 60 C38.11734851 59.03911617 36.32337729 58.88329059 33.33203125 58.90234375 C32.1251062 58.90609009 32.1251062 58.90609009 30.89379883 58.90991211 C29.87697021 58.91901611 28.8601416 58.92812012 27.8125 58.9375 C24.574375 58.958125 21.33625 58.97875 18 59 Z " fill="#FE8406" transform="translate(158,542)"/>
<path d="M0 0 C50.90984043 0 50.90984043 0 60.34375 9.0859375 C65.13442883 14.6223352 67.10847404 20.70813415 67 28 C66.25050927 35.62174419 64.23803256 41.00481988 58.5 46.3125 C56.21731291 47.85331378 54.69270763 48.60108035 52 49 C52 49.66 52 50.32 52 51 C52.680625 51.04125 53.36125 51.0825 54.0625 51.125 C58.98443077 52.59110704 62.54021056 55.71606517 65.30078125 60.03515625 C69.39111137 67.99270758 70.41340414 76.27315005 68.24609375 85.0546875 C64.84337499 94.90255592 60.10985196 99.19768187 51 104 C36.63221234 110.2859071 12.41889474 107 0 107 C0 71.69 0 36.38 0 0 Z M18 16 C18 24.91 18 33.82 18 43 C21.17625 43.0825 24.3525 43.165 27.625 43.25 C29.1092749 43.30462402 29.1092749 43.30462402 30.62353516 43.36035156 C36.43813249 43.43322503 39.55344455 42.81334344 44 39 C47.36548613 35.18578239 47.56823655 31.35183638 47.421875 26.44140625 C46.72071026 22.38373994 45.02786468 20.75260426 42 18 C38.97166552 16.15127992 36.76241344 15.75945624 33.234375 15.8046875 C32.43225586 15.80968262 31.63013672 15.81467773 30.80371094 15.81982422 C29.79598633 15.83803223 28.78826172 15.85624023 27.75 15.875 C24.5325 15.91625 21.315 15.9575 18 16 Z M18 59 C18 69.23 18 79.46 18 90 C23.011875 90.0928125 23.011875 90.0928125 28.125 90.1875 C29.16672363 90.21481201 30.20844727 90.24212402 31.28173828 90.27026367 C36.61147851 90.31793302 40.4274651 90.06526508 45 87 C49.02228011 82.43416853 50.25027712 77.9753662 50 72 C48.33178897 66.11219635 45.8389666 63.42760134 41 60 C38.11734851 59.03911617 36.32337729 58.88329059 33.33203125 58.90234375 C32.1251062 58.90609009 32.1251062 58.90609009 30.89379883 58.90991211 C29.87697021 58.91901611 28.8601416 58.92812012 27.8125 58.9375 C24.574375 58.958125 21.33625 58.97875 18 59 Z " fill="#FE4E09" transform="translate(13,542)"/>
<path d="M0 0 C0.928125 0.474375 1.85625 0.94875 2.8125 1.4375 C6.99462979 3.27626872 11.02206327 3.44208033 15.546875 3.59375 C18.542827 4.08989492 19.20971264 4.5728317 21 7 C22.26626452 9.2342404 23.43555782 11.44719278 24.5625 13.75 C25.07043091 14.77782593 25.07043091 14.77782593 25.58862305 15.82641602 C28.65618809 22.12539845 31.50487382 28.51918284 34.3125 34.9375 C34.94297241 36.37464355 34.94297241 36.37464355 35.58618164 37.84082031 C42.84890925 54.6523924 42.84890925 54.6523924 42 63 C40.81640625 65.19921875 40.81640625 65.19921875 39 67 C26.51358075 69.65751646 13.53831604 63.00570699 3 57 C0.2643086 55.20562177 -2.40062232 53.35197101 -5.0390625 51.41796875 C-6.94125811 49.9619935 -6.94125811 49.9619935 -9 49 C-9.13277344 49.56589844 -9.26554687 50.13179688 -9.40234375 50.71484375 C-9.57894531 51.44832031 -9.75554687 52.18179688 -9.9375 52.9375 C-10.11152344 53.66839844 -10.28554688 54.39929688 -10.46484375 55.15234375 C-11 57 -11 57 -12 58 C-22.47839657 59.37421594 -29.63407279 53.58121416 -37.75 47.5625 C-38.83860867 46.71506683 -39.92428234 45.863738 -41 45 C-40.7834375 45.65226562 -40.566875 46.30453125 -40.34375 46.9765625 C-37.21696574 56.79119086 -37.21696574 56.79119086 -38 61 C-39.94410888 63.88480672 -41.40929707 65.65588875 -44.9140625 66.4140625 C-55.67478502 66.8444914 -66.34763245 62.37067601 -76.0625 58.25 C-77.10728516 57.81115479 -78.15207031 57.37230957 -79.22851562 56.92016602 C-86.20398848 53.92763575 -93.0769112 50.8421251 -99 46 C-99 45.67 -99 45.34 -99 45 C-98.30132812 44.87882812 -97.60265625 44.75765625 -96.8828125 44.6328125 C-95.51769531 44.38144531 -95.51769531 44.38144531 -94.125 44.125 C-92.76761719 43.88136719 -92.76761719 43.88136719 -91.3828125 43.6328125 C-88.83494012 43.16955297 -88.83494012 43.16955297 -87 41 C-86.39809492 35.18158425 -87.22623833 31.71676513 -90.125 26.6640625 C-91 25 -91 25 -91 23 C-87.39013467 24.69102915 -84.11038734 26.79943365 -80.75 28.9375 C-73.19896211 33.6296524 -67.0555993 36.74226224 -58 36 C-55.12041444 35.33521435 -55.12041444 35.33521435 -53 34 C-50.91291988 27.73875963 -51.45028042 21.055584 -54 15 C-51.69838823 16.15080588 -49.46849606 17.31407051 -47.25 18.625 C-43.05369933 20.40035797 -40.53215234 20.44578548 -36 20 C-33.85154772 18.43616059 -33.09490072 17.59312948 -32.671875 14.94921875 C-32.69765625 14.20285156 -32.7234375 13.45648438 -32.75 12.6875 C-32.77578125 11.89859375 -32.8015625 11.1096875 -32.828125 10.296875 C-33.03821238 7.48934359 -33.43435182 4.75753489 -34 2 C-32.8274869 2.95117134 -31.66212985 3.91117009 -30.5 4.875 C-29.52546875 5.67550781 -29.52546875 5.67550781 -28.53125 6.4921875 C-27.77328125 7.23855469 -27.77328125 7.23855469 -27 8 C-27 8.66 -27 9.32 -27 10 C-26.42507813 10.26683594 -25.85015625 10.53367187 -25.2578125 10.80859375 C-22.92755075 12.03823014 -20.97973459 13.48200742 -18.875 15.0625 C-14.1525035 18.25506375 -9.70763298 19.47317165 -4 19 C-1.7643299 18.28639872 -1.7643299 18.28639872 0 17 C1.86128204 11.41615387 1.13770571 5.68852856 0 0 Z " fill="#06632F" transform="translate(504,273)"/>
<path d="M0 0 C6.27 0 12.54 0 19 0 C19.01458252 2.35648682 19.02916504 4.71297363 19.04418945 7.14086914 C19.09460133 14.94013634 19.16120806 22.73920526 19.23571491 30.53827763 C19.28037909 35.26532844 19.31964392 39.99229385 19.34643555 44.71948242 C19.37250797 49.28432643 19.41293819 53.84884111 19.46318626 58.41348076 C19.47982837 60.15208263 19.49135916 61.89074143 19.49761391 63.6294117 C19.50728407 66.07107929 19.53537711 68.51190938 19.56762695 70.95336914 C19.56547432 72.02368126 19.56547432 72.02368126 19.5632782 73.11561584 C19.66835339 78.76688861 20.92679883 83.40849854 24.5 87.875 C28.41188841 90.80891631 33.3528519 90.45816953 38 90 C41.72210861 88.38169191 43.89930441 86.46614772 46 83 C47.30793361 79.18864468 47.17367616 75.27662074 47.20532227 71.29394531 C47.21522186 70.52282913 47.22512146 69.75171295 47.23532104 68.95722961 C47.26685078 66.41422573 47.29165968 63.87120318 47.31640625 61.328125 C47.33698314 59.56263754 47.35797981 57.79715493 47.37937927 56.03167725 C47.43452399 51.38913909 47.48396675 46.74655702 47.53222656 42.10394287 C47.58249711 37.36482851 47.63815417 32.62577775 47.69335938 27.88671875 C47.800848 18.5911982 47.90181569 9.29562349 48 0 C54.27 0 60.54 0 67 0 C67.06795545 10.64914135 67.12291949 21.29813712 67.15543652 31.94744682 C67.17104824 36.89310683 67.19220392 41.83860995 67.22631836 46.78417969 C67.25907271 51.56284234 67.27688676 56.3413547 67.28463173 61.120121 C67.2901465 62.93725065 67.30091509 64.7543727 67.31719017 66.57143784 C67.43357377 80.111972 67.36225519 90.6072776 57.4765625 100.86328125 C48.50360729 108.60493188 37.2905467 108.64914848 26 108 C17.61334349 106.51098527 10.78145873 102.92056228 5.47406006 96.15046692 C-1.28658912 86.28753607 -0.52732982 75.18237311 -0.390625 63.76953125 C-0.38315101 61.92437864 -0.37746356 60.079218 -0.37347412 58.23405457 C-0.35830882 53.41215532 -0.31910712 48.59074931 -0.2746582 43.76904297 C-0.23350747 38.83502878 -0.21542109 33.90093375 -0.1953125 28.96679688 C-0.15260256 19.31094797 -0.08232886 9.65559245 0 0 Z " fill="#F8B505" transform="translate(302,542)"/>
<path d="M0 0 C5.35272952 -0.09977129 10.70490357 -0.1718895 16.05834961 -0.21972656 C17.87485193 -0.23969343 19.69129121 -0.26687687 21.50756836 -0.30175781 C43.94783368 -0.7215482 43.94783368 -0.7215482 52.75390625 6.1484375 C53.35074219 6.88320313 53.94757813 7.61796875 54.5625 8.375 C55.18253906 9.10460937 55.80257812 9.83421875 56.44140625 10.5859375 C64.18635924 22.58187972 59.39299713 40.20594352 57.22900391 53.38110352 C56.74836182 56.3225253 56.29303784 59.26712903 55.83984375 62.21289062 C55.53535473 64.11742801 55.22941546 66.02173422 54.921875 67.92578125 C54.78940369 68.78955887 54.65693237 69.65333649 54.52044678 70.54328918 C52.51250696 82.48587491 48.06696962 92.49097057 38.1875 99.8125 C25.83447546 107.91859533 12.11872104 107.14919238 -2.125 107.0625 C-3.57291511 107.05747252 -5.02083192 107.05291183 -6.46875 107.04882812 C-9.9792056 107.03878678 -13.48958666 107.01984348 -17 107 C-15.56280118 94.71160169 -13.72947196 82.50872314 -11.77734375 70.29296875 C-11.46855623 68.35006684 -11.1599299 66.4071393 -10.85145569 64.46418762 C-10.2102243 60.42921845 -9.56711401 56.3945547 -8.92260742 52.36010742 C-8.09633219 47.18688364 -7.27480182 42.01291913 -6.45462704 36.83872509 C-5.82080313 32.84339559 -5.18455117 28.84845575 -4.54754829 24.85363197 C-4.24339123 22.94433719 -3.93998435 21.03492273 -3.63734245 19.12538719 C-3.21634294 16.47145574 -2.7920882 13.81806502 -2.36694336 11.16479492 C-2.24277039 10.37785248 -2.11859741 9.59091003 -1.99066162 8.78012085 C-1.50230964 5.75025767 -0.97248565 2.91745694 0 0 Z M14 15 C12.72917347 22.84175905 11.45977475 30.68374741 10.19211006 38.52601814 C9.60319811 42.16898557 9.01382708 45.81187739 8.42333984 49.45458984 C7.85161232 52.98168771 7.2811782 56.50899271 6.71157455 60.03643417 C6.39233224 62.01141888 6.07181135 63.98619678 5.75125122 65.96096802 C4.4068275 74.29558294 3.16553249 82.63855381 2 91 C15.91883801 91.91071744 15.91883801 91.91071744 28.9921875 87.875 C37.1696539 80.23845551 37.69881284 70.42464802 39.25 59.9375 C39.50615899 58.29856883 39.76395877 56.65989323 40.0234375 55.02148438 C43.90546485 37.48826846 43.90546485 37.48826846 41.375 20.5 C38.25257888 17.21324093 35.34926486 15.24641223 30.73291016 14.76220703 C28.19033739 14.70552707 25.66703019 14.737847 23.125 14.8125 C21.80628906 14.83280273 21.80628906 14.83280273 20.4609375 14.85351562 C18.30702448 14.88863377 16.15342996 14.94243306 14 15 Z " fill="#35900B" transform="translate(676,542)"/>
<path d="M0 0 C8.25 0 16.5 0 25 0 C27.35739784 9.16456471 29.71396139 18.32934294 32.06919193 27.49446487 C33.16372559 31.75359629 34.25857686 36.01264544 35.35424805 40.27148438 C37.85671997 49.99931091 40.35280439 59.72873765 42.83917236 69.46069336 C43.59632839 72.42371892 44.35590054 75.38610624 45.11785889 78.34790039 C46.12576711 82.2666711 47.12404426 86.18782747 48.12109375 90.109375 C48.41669693 91.25367981 48.71230011 92.39798462 49.01686096 93.57696533 C49.41348183 95.14713409 49.41348183 95.14713409 49.81811523 96.74902344 C50.04812729 97.64925232 50.27813934 98.5494812 50.51512146 99.47698975 C51 102 51 102 51 107 C44.73 107 38.46 107 32 107 C29.59926298 98.27732217 27.6252543 89.93889864 26 81 C17.09 81 8.18 81 -1 81 C-2.22922798 86.93702231 -2.22922798 86.93702231 -3.45263672 92.87524414 C-3.61006348 93.62926514 -3.76749023 94.38328613 -3.9296875 95.16015625 C-4.08679199 95.91949463 -4.24389648 96.67883301 -4.40576172 97.46118164 C-5.15671973 100.66956799 -6.09476654 103.8316829 -7 107 C-13.27 107 -19.54 107 -26 107 C-25.34046342 101.06417082 -24.66325137 96.03085057 -23.23754883 90.35083008 C-23.06172272 89.64358292 -22.88589661 88.93633575 -22.70474243 88.20765686 C-22.12786195 85.89348192 -21.54261329 83.58151823 -20.95703125 81.26953125 C-20.54640059 79.63127194 -20.13622785 77.99289778 -19.72648621 76.35441589 C-18.86675459 72.92163872 -18.00316249 69.48986527 -17.13647461 66.05883789 C-16.04288251 61.72926409 -14.95629774 57.39797349 -13.87227058 53.06599617 C-9.43139939 35.32447314 -4.90476728 17.62023596 0 0 Z M12 19 C11.79842285 19.95253662 11.5968457 20.90507324 11.38916016 21.88647461 C10.63294255 25.45932508 9.87612669 29.03204861 9.11914062 32.60473633 C8.79313395 34.14376488 8.46728419 35.68282667 8.14160156 37.22192383 C7.67034654 39.44882064 7.19847809 41.67558685 6.7265625 43.90234375 C6.57479553 44.62046234 6.42302856 45.33858093 6.2666626 46.07846069 C5.47062251 49.83322373 4.64235642 53.57790939 3.7734375 57.31640625 C2.86300839 61.0251204 2.86300839 61.0251204 3 65 C9.27 65 15.54 65 22 65 C21.31559961 58.8403965 20.48965664 53.03460544 19.15234375 47.02734375 C18.88811363 45.81456505 18.88811363 45.81456505 18.61854553 44.57728577 C18.06248538 42.02972924 17.50011236 39.4836166 16.9375 36.9375 C16.55621977 35.19605563 16.17535662 33.45451989 15.79492188 31.71289062 C14.86809324 27.47419021 13.93560576 23.23677131 13 19 C12.67 19 12.34 19 12 19 Z " fill="#FE6608" transform="translate(105,542)"/>
<path d="M0 0 C5.61 0 11.22 0 17 0 C15.11443485 14.77026031 12.75583712 29.36555462 10 44 C19.9 44 29.8 44 40 44 C40.433125 40.761875 40.86625 37.52375 41.3125 34.1875 C42.34720453 26.55146092 43.43358896 18.92574339 44.625 11.3125 C44.80929565 10.120802 44.80929565 10.120802 44.99731445 8.9050293 C45.48547659 5.83307309 46.01442596 2.95672212 47 0 C52.61 0 58.22 0 64 0 C62.48164546 9.77122017 60.96090141 19.54206553 59.4375 29.3125 C59.32471962 30.03583527 59.21193924 30.75917053 59.09574127 31.50442505 C55.16837055 56.68697354 51.14552067 81.85233819 47 107 C41.39 107 35.78 107 30 107 C31.33039817 95.95893858 32.87564183 84.98152006 34.625 74 C34.85700468 72.53128692 35.08877636 71.06253702 35.3203125 69.59375 C35.87712025 66.06199801 36.4386329 62.5310419 37 59 C27.43 59.33 17.86 59.66 8 60 C7.50628906 63.14144531 7.01257813 66.28289062 6.50390625 69.51953125 C6.02462118 72.55779598 5.54445801 75.59592071 5.06420898 78.6340332 C4.73060702 80.74749501 4.39791985 82.86110143 4.06616211 84.97485352 C3.58947645 88.01096352 3.10951635 91.04654033 2.62890625 94.08203125 C2.48095108 95.02899368 2.33299591 95.97595612 2.18055725 96.95161438 C2.04048752 97.83230087 1.90041779 98.71298737 1.75610352 99.62036133 C1.63396988 100.39535477 1.51183624 101.17034821 1.38600159 101.96882629 C1 104 1 104 0 107 C-5.61 107 -11.22 107 -17 107 C-13.4870935 83.10937976 -9.80854616 59.24639388 -6.0276413 35.39686966 C-5.68720381 33.24813054 -5.34745844 31.09928295 -5.00787354 28.95040894 C-4.36574845 24.88842658 -3.72026304 20.8269859 -3.07421875 16.765625 C-2.7823745 14.91968498 -2.7823745 14.91968498 -2.4846344 13.03645325 C-2.30367722 11.90326157 -2.12272003 10.77006989 -1.9362793 9.60253906 C-1.77894821 8.61288147 -1.62161713 7.62322388 -1.45951843 6.60357666 C-1.06769888 4.38357377 -0.54675166 2.18700664 0 0 Z " fill="#B7B506" transform="translate(459,542)"/>
<path d="M0 0 C4.89808517 3.98681351 8.36372247 7.92964257 9.6875 14.1875 C9.88092254 17.5316739 9.95805175 20.84650048 9.6875 24.1875 C8.6875 25.1875 8.6875 25.1875 5.08984375 25.28515625 C3.60153133 25.2784822 2.11323568 25.26652183 0.625 25.25 C-0.13361328 25.24548828 -0.89222656 25.24097656 -1.67382812 25.23632812 C-3.55341871 25.2245068 -5.43296899 25.20657078 -7.3125 25.1875 C-7.41046875 24.58421875 -7.5084375 23.9809375 -7.609375 23.359375 C-8.51428672 18.52277786 -9.13501333 15.22567212 -13.3125 12.1875 C-18.86135563 10.33788146 -24.2540324 10.38852398 -29.625 12.8125 C-33.38318086 14.94612858 -35.38731673 17.26012613 -37.3125 21.1875 C-38.45322903 25.83189677 -38.79483408 29.01266541 -36.3125 33.1875 C-31.38524024 38.08548891 -25.39002796 39.10680476 -18.88085938 40.81054688 C-10.26528917 43.19689726 -3.48476203 46.65077533 1.6875 54.1875 C6.35293836 62.55895189 5.55895939 71.89452913 3.125 80.875 C-0.05796901 90.14664493 -5.01759062 96.29006785 -13.66015625 100.96875 C-25.04899054 106.20191097 -38.30692177 107.34335566 -50.234375 103.09765625 C-56.68839868 100.27098798 -61.73125918 96.04790863 -64.4453125 89.421875 C-65.89672516 84.00849805 -65.42643981 78.7705506 -65.3125 73.1875 C-59.7025 73.1875 -54.0925 73.1875 -48.3125 73.1875 C-48.23 74.569375 -48.1475 75.95125 -48.0625 77.375 C-47.56880167 81.73600191 -46.63418197 84.14262486 -43.3125 87.1875 C-37.51157407 89.96526995 -31.17953655 90.3352208 -24.99609375 88.5 C-20.19307436 86.31266669 -17.32805809 83.48238576 -14.3125 79.1875 C-13.3548155 76.3144465 -13.11714541 74.30889007 -13.0625 71.3125 C-13.02382813 70.04792969 -13.02382813 70.04792969 -12.984375 68.7578125 C-13.39676245 65.52744412 -14.32428731 63.75996817 -16.3125 61.1875 C-18.48619234 59.9078731 -18.48619234 59.9078731 -21.0625 59.1875 C-22.51849609 58.70410156 -22.51849609 58.70410156 -24.00390625 58.2109375 C-26.36401144 57.48089316 -28.72623364 56.75767819 -31.08984375 56.0390625 C-40.46439117 53.13518204 -48.13052693 50.47157281 -53.3125 41.625 C-56.81949007 33.70752412 -56.35179865 25.49155537 -53.6875 17.375 C-50.04789017 8.65008167 -44.87633045 2.40374168 -36.3125 -1.8125 C-23.95744126 -6.28530132 -11.64191027 -6.37010185 0 0 Z " fill="#DFBA05" transform="translate(436.3125,544.8125)"/>
<path d="M0 0 C21.12 0 42.24 0 64 0 C63.34 4.95 62.68 9.9 62 15 C46.49 15.33 30.98 15.66 15 16 C13.72583349 24.09196745 13.72583349 24.09196745 12.45727539 32.18481445 C12.21738892 33.69628052 12.21738892 33.69628052 11.97265625 35.23828125 C11.81031494 36.26993408 11.64797363 37.30158691 11.48071289 38.36450195 C11 41 11 41 10 44 C23.86 44 37.72 44 52 44 C51.34 48.62 50.68 53.24 50 58 C36.14 58 22.28 58 8 58 C6.7280265 66.61538836 6.7280265 66.61538836 5.45727539 75.23095703 C5.21738892 76.85300049 5.21738892 76.85300049 4.97265625 78.5078125 C4.81031494 79.60754395 4.64797363 80.70727539 4.48071289 81.84033203 C4.0155173 84.89800663 3.508463 87.94922202 3 91 C18.18 91.33 33.36 91.66 49 92 C48 103 48 103 47 107 C26.21 107 5.42 107 -16 107 C-15.39630782 99.15200166 -14.77671567 91.61188375 -13.50952148 83.89526367 C-13.3630719 82.97652969 -13.21662231 82.05779572 -13.06573486 81.11122131 C-12.58916098 78.12931474 -12.10521603 75.14865823 -11.62109375 72.16796875 C-11.28575893 70.07911946 -10.95089225 67.99019498 -10.61647034 65.90119934 C-9.74160349 60.44421978 -8.86044461 54.98827497 -7.97790527 49.53253174 C-6.91678338 42.96433824 -5.8635978 36.39486795 -4.80905914 29.82561493 C-3.21206852 19.88275995 -1.60509816 9.94156463 0 0 Z " fill="#5D9C09" transform="translate(605,542)"/>
<path d="M0 0 C21.12 0 42.24 0 64 0 C63.34 4.95 62.68 9.9 62 15 C46.49 15.33 30.98 15.66 15 16 C13.72583349 24.09196745 13.72583349 24.09196745 12.45727539 32.18481445 C12.21738892 33.69628052 12.21738892 33.69628052 11.97265625 35.23828125 C11.81031494 36.26993408 11.64797363 37.30158691 11.48071289 38.36450195 C11 41 11 41 10 44 C23.86 44 37.72 44 52 44 C51.34 48.62 50.68 53.24 50 58 C36.14 58 22.28 58 8 58 C6.7280265 66.61538836 6.7280265 66.61538836 5.45727539 75.23095703 C5.21738892 76.85300049 5.21738892 76.85300049 4.97265625 78.5078125 C4.81031494 79.60754395 4.64797363 80.70727539 4.48071289 81.84033203 C4.0155173 84.89800663 3.508463 87.94922202 3 91 C18.18 91.33 33.36 91.66 49 92 C48 103 48 103 47 107 C26.21 107 5.42 107 -16 107 C-15.39630782 99.15200166 -14.77671567 91.61188375 -13.50952148 83.89526367 C-13.3630719 82.97652969 -13.21662231 82.05779572 -13.06573486 81.11122131 C-12.58916098 78.12931474 -12.10521603 75.14865823 -11.62109375 72.16796875 C-11.28575893 70.07911946 -10.95089225 67.99019498 -10.61647034 65.90119934 C-9.74160349 60.44421978 -8.86044461 54.98827497 -7.97790527 49.53253174 C-6.91678338 42.96433824 -5.8635978 36.39486795 -4.80905914 29.82561493 C-3.21206852 19.88275995 -1.60509816 9.94156463 0 0 Z " fill="#8CAA08" transform="translate(532,542)"/>
<path d="M0 0 C6.27 0 12.54 0 19 0 C19 29.37 19 58.74 19 89 C33.85 89 48.7 89 64 89 C64 94.94 64 100.88 64 107 C42.88 107 21.76 107 0 107 C0 71.69 0 36.38 0 0 Z " fill="#FE9F05" transform="translate(236,542)"/>
<path d="M0 0 C0.5625 1.9375 0.5625 1.9375 1 4 C0.67 4.33 0.34 4.66 0 5 C-3.31868529 17.91488371 -4.39612179 30.60042786 -4.375 43.875 C-4.37654083 44.5673172 -4.37808167 45.2596344 -4.37966919 45.97293091 C-4.40039981 56.66658597 -4.40039981 56.66658597 -2 67 C-0.02965198 68.5748108 -0.02965198 68.5748108 2 69 C0.35 69 -1.3 69 -3 69 C1.36697902 85.91138758 1.36697902 85.91138758 8 102 C8 102.66 8 103.32 8 104 C-1.40754199 99.65805754 -8.33703074 90.70958611 -15 83 C-15.7528125 82.13117188 -16.505625 81.26234375 -17.28125 80.3671875 C-22.52371651 73.85209325 -26.46487408 66.80955093 -30.375 59.4375 C-30.88732178 58.47996826 -31.39964355 57.52243652 -31.92749023 56.53588867 C-36.60801776 47.45993794 -39.58719835 38.59206313 -39.375 28.3125 C-39.36339844 27.57918457 -39.35179687 26.84586914 -39.33984375 26.09033203 C-39.14471112 19.66099893 -38.74247583 14.97252899 -34.23046875 10.08203125 C-27.8903554 4.20257623 -21.7260345 0.94735424 -13 1 C-8.95957235 1.48621271 -4.98601446 2.18391244 -1 3 C-0.67 2.01 -0.34 1.02 0 0 Z " fill="#FDC709" transform="translate(244,214)"/>
<path d="M0 0 C1.94045688 0.4241929 3.87731761 0.86485995 5.8125 1.3125 C7.43091797 1.67794922 7.43091797 1.67794922 9.08203125 2.05078125 C14.64874681 3.86164053 16.18100904 7.93860653 18.8125 12.875 C26.6980341 27.27284846 36.14871628 40.88371939 46 54 C46.944452 55.27441245 47.88842287 56.54918153 48.83203125 57.82421875 C53.96980952 64.74514195 59.19196757 71.55562323 64.69140625 78.1953125 C67.49620915 81.60283954 70.25706428 85.04257771 73 88.5 C73.48154541 89.10021973 73.96309082 89.70043945 74.45922852 90.31884766 C76.47551553 92.87021643 77.9629872 94.88896161 79 98 C75.21063616 96.36821653 72.23599754 93.90250002 69.125 91.25 C68.56345215 90.77264404 68.0019043 90.29528809 67.42333984 89.8034668 C58.59698674 82.1807073 50.22042314 73.87252536 42.6875 64.96484375 C40.60529345 62.5404227 38.42497793 60.21649968 36.25 57.875 C31.88678718 53.10003802 27.87113312 48.12683808 23.91967773 43.00830078 C20.81986132 39.00123462 17.59326728 35.16839098 14.14453125 31.453125 C13 30 13 30 13 28 C12.34 28 11.68 28 11 28 C11.04640625 28.75925781 11.0928125 29.51851563 11.140625 30.30078125 C11.19476563 31.79158203 11.19476563 31.79158203 11.25 33.3125 C11.29640625 34.29863281 11.3428125 35.28476562 11.390625 36.30078125 C11 39 11 39 9.20703125 40.84765625 C6.46270275 42.28053573 4.36384237 42.28512981 1.3359375 41.76171875 C-6.94582262 39.0611448 -15.26244928 32.47142349 -21 26 C-22.16651115 23.38595455 -22.09691493 22.31828903 -21.2578125 19.5625 C-20.69707031 18.2940625 -20.69707031 18.2940625 -20.125 17 C-18.82125427 14.00959022 -17.69454661 11.1919589 -17 8 C-12.25 9.875 -12.25 9.875 -10 11 C-5.93311615 11.36180084 -5.93311615 11.36180084 -2.1875 10 C-0.29896856 6.81931546 -0.30043453 3.66530121 0 0 Z " fill="#5C9B14" transform="translate(432,352)"/>
<path d="M0 0 C2.81907963 1.19611532 3.47288794 0.75771816 6.34765625 -0.00390625 C10.05266927 -0.25195946 13.76016429 -0.23510882 17.47265625 -0.25390625 C18.4678125 -0.27453125 19.46296875 -0.29515625 20.48828125 -0.31640625 C30.25470823 -0.36740587 38.10046526 1.79677769 46.34765625 6.99609375 C46.34765625 9.30609375 46.34765625 11.61609375 46.34765625 13.99609375 C41.61994502 15.0761004 38.3352374 14.75801594 33.66015625 13.55859375 C17.93509489 9.98920221 2.76697297 12.85711831 -11.65234375 19.99609375 C-12.64234375 20.65609375 -13.63234375 21.31609375 -14.65234375 21.99609375 C-17.77734375 22.18359375 -17.77734375 22.18359375 -20.65234375 21.99609375 C-20.98234375 21.66609375 -21.31234375 21.33609375 -21.65234375 20.99609375 C-21.41222598 14.87309049 -19.71500138 12.26709279 -15.65234375 7.99609375 C-27.45814362 7.52595128 -37.03928583 9.18714798 -47.546875 14.75390625 C-51.13303018 16.18836832 -53.82290381 16.28812976 -57.65234375 15.99609375 C-58.65234375 14.99609375 -58.65234375 14.99609375 -58.77734375 11.87109375 C-58.17396974 8.24340065 -56.62673889 6.64192548 -53.83984375 4.30859375 C-39.76459806 -5.66510741 -15.35156554 -8.15068731 0 0 Z " fill="#4B4C4C" transform="translate(338.65234375,382.00390625)"/>
<path d="M0 0 C0.66 0 1.32 0 2 0 C3.0828125 1.36125 3.0828125 1.36125 4.1875 2.75 C7.32943788 6.65445497 11.19033799 9.23636906 16.03100586 10.55200195 C18.24592638 11.15583241 20.03934136 11.79756586 22 13 C23.23145172 15.94532783 23.80284712 17.9325246 24.25 21 C24.54047724 22.53873111 24.8360631 24.0765065 25.13671875 25.61328125 C25.2764209 26.36303223 25.41612305 27.1127832 25.56005859 27.88525391 C26.9662247 34.64452736 29.86746063 40.89154823 33 47 C33 47.66 33 48.32 33 49 C19.3228365 42.687463 7.77918728 26.42951889 -0.26953125 14.046875 C-1.30374926 11.14885234 -0.95546976 8.79032182 -0.625 5.75 C-0.51414063 4.67234375 -0.40328125 3.5946875 -0.2890625 2.484375 C-0.19367188 1.66453125 -0.09828125 0.8446875 0 0 Z " fill="#469112" transform="translate(219,269)"/>
<path d="M0 0 C1.13407313 3.40221939 0.72750751 4.57032174 0 8 C-0.66824029 20.13710849 1.78563618 28.91110695 6.66015625 39.828125 C8 43 8 43 8.43359375 45.296875 C8.62050781 45.85890625 8.80742187 46.4209375 9 47 C10.32 47.66 11.64 48.32 13 49 C9.37 49 5.74 49 2 49 C-4.59403539 37.43845794 -10.35810958 26.61882103 -9 13 C-7.30522357 7.52881956 -4.2258252 3.75628907 0 0 Z " fill="#FC9402" transform="translate(348,333)"/>
<path d="M0 0 C3.88192126 3.76774711 7.79531881 7.62797789 11 12 C11 12.66 11 13.32 11 14 C7.76138697 12.55575365 5.38030837 10.74227753 2.75 8.375 C2.04359375 7.74335938 1.3371875 7.11171875 0.609375 6.4609375 C0.07828125 5.97882813 -0.4528125 5.49671875 -1 5 C-0.67 3.35 -0.34 1.7 0 0 Z " fill="#8EB93C" transform="translate(500,436)"/>
<path d="M0 0 C2 2 2 2 2 6 C-8.89 6.495 -8.89 6.495 -20 7 C-15.33370504 3.8891367 -11.20351549 3.87688445 -5.6875 3.9375 C-4.08455078 3.95103516 -4.08455078 3.95103516 -2.44921875 3.96484375 C-1.64097656 3.97644531 -0.83273437 3.98804688 0 4 C0 2.68 0 1.36 0 0 Z " fill="#FE9C0F" transform="translate(380,189)"/>
<path d="M0 0 C0.66 0 1.32 0 2 0 C6.42857143 7.42857143 6.42857143 7.42857143 7 11 C6.01 11.66 5.02 12.32 4 13 C3.32404685 11.58774074 2.65959941 10.16997095 2 8.75 C1.62875 7.96109375 1.2575 7.1721875 0.875 6.359375 C0 4 0 4 0 0 Z " fill="#47980D" transform="translate(346,246)"/>
<path d="M0 0 C0.66 0.33 1.32 0.66 2 1 C0.04761147 3.00612399 -1.91137822 5.00492433 -3.875 7 C-4.43058594 7.57234375 -4.98617188 8.1446875 -5.55859375 8.734375 C-7.00134404 10.19450782 -8.4974374 11.60149298 -10 13 C-10.66 13 -11.32 13 -12 13 C-10.44997253 9.11602311 -7.99523379 6.97020381 -4.875 4.25 C-3.96492188 3.45078125 -3.05484375 2.6515625 -2.1171875 1.828125 C-1.06917969 0.92320312 -1.06917969 0.92320312 0 0 Z " fill="#FEA604" transform="translate(350,200)"/>
<path d="M0 0 C1.65 1.65 3.3 3.3 5 5 C4.67 5.33 4.34 5.66 4 6 C3.63239269 8.32817964 3.29758419 10.6618385 3 13 C2.67 13 2.34 13 2 13 C1.34 8.71 0.68 4.42 0 0 Z " fill="#1A7129" transform="translate(470,275)"/>
<path d="M0 0 C2.35953094 2.35953094 2.49141413 3.77895617 3 7 C0.11562221 5.70700306 -1.87219421 4.34058637 -4 2 C-2.68 2 -1.36 2 0 2 C0 1.34 0 0.68 0 0 Z " fill="#66AA3C" transform="translate(249,311)"/>
<path d="M0 0 C4.875 4.625 4.875 4.625 6 8 C3.53199953 6.84826645 1.95216435 5.95216435 0 4 C0 2.68 0 1.36 0 0 Z " fill="#9BBF4D" transform="translate(505,442)"/>
<path d="M0 0 C0.66 0.33 1.32 0.66 2 1 C-0.31 2.65 -2.62 4.3 -5 6 C-5 4.68 -5 3.36 -5 2 C-2.625 0.9375 -2.625 0.9375 0 0 Z " fill="#327531" transform="translate(399,384)"/>
<path d="M0 0 C0.33 0 0.66 0 1 0 C1 2.31 1 4.62 1 7 C-0.98 7.33 -2.96 7.66 -5 8 C-5 7.34 -5 6.68 -5 6 C-3.35 5.67 -1.7 5.34 0 5 C0 3.35 0 1.7 0 0 Z " fill="#6C6969" transform="translate(384,389)"/>
<path d="M0 0 C0.66 0 1.32 0 2 0 C2.33 1.32 2.66 2.64 3 4 C4.65 4.33 6.3 4.66 8 5 C8 5.33 8 5.66 8 6 C5.66705225 6.04241723 3.33297433 6.04092937 1 6 C0 5 0 5 -0.0625 2.4375 C-0.041875 1.633125 -0.02125 0.82875 0 0 Z " fill="#676767" transform="translate(280,392)"/>
<path d="M0 0 C1.99097846 2.98646769 2.94124926 5.59687262 4 9 C2.68 8.34 1.36 7.68 0 7 C0 4.69 0 2.38 0 0 Z " fill="#F4D254" transform="translate(441,347)"/>
<path d="M0 0 C0.66 0 1.32 0 2 0 C3.03039555 4.53374042 3.17766075 5.64467851 1 10 C0.67 6.7 0.34 3.4 0 0 Z " fill="#6BA10A" transform="translate(459,226)"/>
</svg>
